<svg width="47" height="49" fill="none" xmlns="http://www.w3.org/2000/svg"><path fill-rule="evenodd" clip-rule="evenodd" d="M20.145.758c0 .422.377 1.079.839 1.46.461.382.838 1.276.838 1.99 0 1.989-2.552 3.628-9.944 6.385-1.01.377-2.304 1.278-2.876 2.001-.572.725-1.394 1.317-1.826 1.317-1.342 0-2.129 1.25-2.129 3.385 0 1.758-.241 2.148-1.703 2.751C.352 21.281.014 22.73.014 34.362c0 15.514-1.42 14.629 23.486 14.629 24.905 0 23.485.885 23.485-14.629 0-11.611-.34-13.082-3.299-14.303-1.428-.588-1.7-1.03-1.844-3.002-.128-1.745-.467-2.44-1.386-2.843-.733-.32-1.349-1.223-1.545-2.268-.865-4.589-5.959-9.43-11.713-11.132-3.59-1.062-7.053-1.09-7.053-.056Zm9.975 3.096c3.508 1.8 7.36 6.763 7.36 9.483 0 .38-4.693.574-13.82.574-15.236 0-15.924-.231-8.374-2.821 2.096-.718 4.8-2.151 6.011-3.184C23.147 6.33 23.5 5.689 23.5 3.904V1.78l2.286.511c1.258.282 3.208.985 4.334 1.563ZM40.17 17.39l-.175 1.81H7.005l-.176-1.81-.175-1.81h33.692l-.175 1.81Zm3.844 4.97c1.263 1.182 1.293 1.451 1.276 11.553-.02 11.41-.16 11.942-3.41 12.87-2.445.698-34.315.698-36.76 0-3.246-.927-3.39-1.467-3.41-12.792-.017-9.785.04-10.325 1.198-11.554l1.216-1.288h19.298c19.043 0 19.314.016 20.592 1.21Zm-23.239 4.967c-1.679 1.558-2.307 3.364-2.307 6.629 0 8.063 6.026 10.665 9.436 4.073.896-1.733.777-6.626-.207-8.522-1.709-3.29-4.707-4.234-6.922-2.18Zm3.539.85c2.51.96 3.358 6.943 1.429 10.094-1.28 2.09-2.735 2.308-4.253.638-1.526-1.68-1.526-8.227 0-9.906 1.151-1.268 1.445-1.353 2.824-.827Zm-21.696 4.92c-.44 1.138.167 2.63.96 2.367.82-.272.82-2.744 0-3.017-.346-.115-.778.177-.96.65Zm4.31.023c-.401 1.038.126 2.506.898 2.506.317 0 .576-.752.576-1.67 0-1.749-.922-2.271-1.475-.836Zm4.643-.463c-.732.728-.38 2.97.466 2.97.56 0 .839-.558.839-1.671 0-1.597-.503-2.098-1.305-1.3Zm4.1 1.299c0 1.113.28 1.67.84 1.67.559 0 .838-.557.838-1.67 0-1.114-.28-1.67-.839-1.67-.559 0-.838.556-.838 1.67Zm13.98 0c0 1.113.28 1.67.839 1.67.559 0 .838-.557.838-1.67 0-1.114-.28-1.67-.838-1.67-.56 0-.84.556-.84 1.67Zm4.473-.047c0 1.188.27 1.717.876 1.717.621 0 .825-.434.699-1.488-.257-2.168-1.575-2.359-1.575-.229Zm4.474.047c0 1.163.237 1.684.699 1.53.384-.127.699-.816.699-1.53 0-.715-.315-1.404-.7-1.532-.46-.153-.698.369-.698 1.532Zm4.116-.836c-.386 1.003.117 2.506.839 2.506.721 0 1.225-1.503.839-2.506-.178-.459-.555-.835-.84-.835-.284 0-.661.376-.838.835Z" fill="url(#a)"/><defs><linearGradient id="a" x1=".015" y1="35.627" x2="46.985" y2="36.189" gradientUnits="userSpaceOnUse"><stop offset=".018"/><stop offset=".526" stop-color="#716571"/><stop offset=".995" stop-opacity=".81"/></linearGradient></defs></svg>