<svg width="25" height="29" fill="none" xmlns="http://www.w3.org/2000/svg"><path fill-rule="evenodd" clip-rule="evenodd" d="M9.298.662C5.984 2.17 4.257 5.43 4.926 8.915c.168.872 1.271 3.162 2.451 5.088 1.18 1.926 2.057 3.643 1.947 3.816-.109.173-1.241.453-2.515.623-3 .398-6.06 2.104-6.634 3.7-.678 1.88.613 3.419 3.939 4.693 4.062 1.556 12.71 1.556 16.772 0 3.326-1.274 4.617-2.812 3.94-4.694-.575-1.595-3.634-3.3-6.635-3.7-1.274-.169-2.432-.49-2.574-.714-.142-.224.42-1.37 1.249-2.545 3.442-4.885 4.11-7.918 2.443-11.107C17.474.565 12.925-.987 9.298.662ZM16.73 2.44c1.816 1.346 2.833 4.09 2.378 6.416-.171.872-1.619 3.603-3.217 6.067-1.599 2.465-2.907 4.757-2.907 5.093 0 .337-.218.612-.485.612s-.485-.267-.485-.592c0-.326-1.123-2.298-2.495-4.383-1.373-2.084-2.792-4.476-3.154-5.315C3.525 3.767 10.918-1.867 16.73 2.44ZM9.809 4.735c-2.407 2.35-.701 6.417 2.691 6.417 1.854 0 3.882-1.845 3.882-3.532 0-1.653-.784-1.522-1.135.19-.334 1.633-1.87 2.593-3.506 2.192-2.445-.599-2.746-4.075-.44-5.101.659-.293 1.2-.713 1.2-.932 0-.801-1.533-.365-2.692.766Zm3.662-.266c0 .48 1.478 1.135 1.816.804.122-.12.078-.444-.098-.722-.387-.611-1.718-.675-1.718-.082Zm-1.725 2.46c-.5.79.625 1.697 1.294 1.043.56-.547.21-1.557-.54-1.557-.235 0-.574.231-.754.515Zm-.365 14.173c.474 1.302.977 2.368 1.12 2.368.14 0 .645-1.066 1.12-2.37l.862-2.372 2.041.31c8.246 1.256 10.131 4.833 3.716 7.048-7.794 2.691-21.476-.114-19.107-3.918.889-1.429 5.128-3.059 8.8-3.383.322-.03.974 1.014 1.448 2.317Zm-4.88 4.243c.75.784 8.425 1.296 8.425.562 0-.323-.852-.541-2.115-.541-1.164 0-3.184-.135-4.489-.299-1.852-.233-2.252-.172-1.821.278Zm9.881.02c0 .261.424.474.942.474s1.077-.213 1.242-.473c.17-.27-.238-.474-.942-.474-.683 0-1.242.213-1.242.474Z" fill="url(#a)"/><defs><linearGradient id="a" x1=".008" y1="20.36" x2="24.993" y2="20.638" gradientUnits="userSpaceOnUse"><stop offset=".018"/><stop offset=".526" stop-color="#716571"/><stop offset=".995" stop-opacity=".81"/></linearGradient></defs></svg>