<svg width="60" height="49" fill="none" xmlns="http://www.w3.org/2000/svg"><path fill-rule="evenodd" clip-rule="evenodd" d="M25.458 2.882c-1.547 1.585-3.265 4.287-3.818 6.005-.966 3.002-1.2 3.124-5.973 3.124-6.088 0-10.042 2.298-10.042 5.836 0 3.367 2.205 7.402 5.686 10.404l2.94 2.536-1.5 3.844C9.885 41.972 11.79 49.016 16.64 49c3.454-.01 8.309-1.983 10.854-4.41l2.651-2.527 2.576 2.53c4.487 4.406 11.142 5.577 14.153 2.49 2.297-2.353 2.441-7.157.374-12.452l-1.5-3.844 2.94-2.536c3.481-3.002 5.686-7.037 5.686-10.404 0-3.538-3.954-5.836-10.042-5.836-4.773 0-5.007-.122-5.973-3.124C37.132 5.073 32.36 0 30 0c-.952 0-2.996 1.297-4.542 2.882Zm8.28 1.909c4.304 4.723 4.385 7.227.364 11.115-4.34 4.194-3.454 5.576 1.003 1.565 3.586-3.227 8.412-4.608 12.462-3.567 5.776 1.487 6.526 5.31 2.062 10.52-3.557 4.153-5.87 4.968-8.578 3.023-2.38-1.71-4.489-1.963-4.489-.542 0 .529.603.961 1.34.961 2.524 0 7.848 6.169 8.528 9.879.8 4.37-.062 8.27-1.997 9.03-2.197.864-8.76-1.476-11.225-4.003-1.878-1.925-2.063-2.687-1.308-5.387.484-1.73.676-3.355.428-3.61-.64-.655-.904-.235-3.103 4.93-1.57 3.684-2.753 4.962-5.982 6.465-2.213 1.029-4.959 1.881-6.1 1.893-3.872.04-5.175-5.851-2.66-12.021 1.229-3.013 1.717-3.332 5.101-3.332 2.06 0 4.003-.433 4.322-.961.345-.573-.787-.961-2.804-.961-8.415 0-17.089-10.251-12.195-14.414 1.692-1.44 8.976-2.313 10.36-1.242.542.419 1.602 2.457 2.355 4.529.752 2.072 1.846 3.93 2.43 4.13.697.238.564-1.054-.392-3.778-1.875-5.343-.993-10.277 2.527-14.14 3.343-3.668 4.273-3.678 7.55-.082Zm-4.675 18.27c0 .529-.929.961-2.063.961-1.604 0-1.812.257-.938 1.154.62.634 1.125 1.859 1.125 2.722 0 1.103.836 1.57 2.813 1.57 1.977 0 2.813-.467 2.813-1.57 0-.863.506-2.088 1.124-2.723.875-.896.667-1.153-.937-1.153-1.134 0-2.063-.432-2.063-.96A.952.952 0 0 0 30 22.1a.952.952 0 0 0-.938.96ZM0 30.75c0 1.057.422 1.921.938 1.921.515 0 .937-.864.937-1.921s-.422-1.922-.938-1.922c-.515 0-.937.865-.937 1.922Zm4.688 0c0 1.057.421 1.921.937 1.921s.938-.864.938-1.921-.422-1.922-.938-1.922-.938.865-.938 1.922Zm4.687 0c0 1.057.422 1.921.938 1.921.515 0 .937-.864.937-1.921s-.422-1.922-.938-1.922c-.515 0-.937.865-.937 1.922Zm39.375 0c0 1.057.422 1.921.938 1.921.515 0 .937-.864.937-1.921s-.422-1.922-.938-1.922c-.515 0-.937.865-.937 1.922Zm4.688 0c0 1.057.421 1.921.937 1.921s.938-.864.938-1.921-.422-1.922-.938-1.922-.938.865-.938 1.922Zm4.687 0c0 1.057.422 1.921.938 1.921.515 0 .937-.864.937-1.921s-.422-1.922-.938-1.922c-.515 0-.937.865-.937 1.922Z" fill="url(#a)"/><defs><linearGradient id="a" x1=".019" y1="35.627" x2="59.975" y2="36.542" gradientUnits="userSpaceOnUse"><stop offset=".018"/><stop offset=".526" stop-color="#716571"/><stop offset=".995" stop-opacity=".81"/></linearGradient></defs></svg>