<svg width="47" height="49" fill="none" xmlns="http://www.w3.org/2000/svg"><path fill-rule="evenodd" clip-rule="evenodd" d="M34.51 1.048c-.781.985-.706 1.491.417 2.788 1.332 1.539 1.31 1.652-.801 3.956l-2.173 2.37-2.457-2.49c-3.018-3.057-5.25-2.685-4.59.767.384 2.009-.47 3.157-8.677 11.681-8.921 9.266-9.095 9.514-8.675 12.38.256 1.744.093 3.143-.403 3.463-.457.296-.653 1.477-.434 2.624.327 1.716-.298 2.83-3.505 6.25C1.066 47.127-.346 49 .074 49c.42 0 2.28-1.615 4.134-3.59 2.769-2.95 3.722-3.508 5.346-3.136 1.269.291 2.311.03 2.914-.728.703-.886 1.41-.994 2.825-.432 1.037.413 2.259.75 2.714.75.456 0 4.89-4.191 9.855-9.316 6.984-7.207 9.485-9.316 11.05-9.316 2.864 0 3.07-2.392.454-5.247l-2.123-2.317 2.059-2.153c1.774-1.854 2.267-2.017 3.56-1.172 2.042 1.333 3.541 1.23 4.096-.284.316-.858-1.157-3.018-4.593-6.74C37.082-.4 36.09-.94 34.51 1.049Zm6.44 5.117c2.465 2.605 4.237 4.993 3.938 5.307-.557.581-9.606-8.296-9.606-9.424 0-1.403 1.416-.374 5.668 4.117Zm-1.118 15.448c0 .436-3.072-2.403-6.826-6.31-3.754-3.905-6.825-7.458-6.825-7.894 0-.436 3.071 2.403 6.825 6.31 3.754 3.906 6.826 7.458 6.826 7.894ZM39.39 8.802c.634 1.053.374 1.78-1.245 3.472-2.009 2.1-2.077 2.113-3.609.664l-1.56-1.477 2.064-2.254c2.217-2.42 3.085-2.5 4.35-.405Zm-7.516 7.697 4.509 4.762-8.324 8.77c-4.579 4.822-8.918 9.111-9.645 9.532-2.593 1.5-8.32-3.255-9.415-7.818-.4-1.663.738-3.192 8.157-10.97 4.741-4.972 8.979-9.039 9.415-9.039.437 0 2.824 2.143 5.303 4.763Zm-5.55-1.542c.181.572.779 1.197 1.326 1.388.57.198.854-.1.664-.694-.183-.572-.78-1.197-1.327-1.387-.569-.199-.853.099-.664.693Zm-3.177 2.191c0 1.074 3.744 4.417 4.298 3.838.281-.294-.289-1.425-1.267-2.514-1.79-1.993-3.03-2.535-3.03-1.324Zm-2.132 3.36c.182.571.78 1.196 1.327 1.387.569.198.853-.1.663-.694-.182-.572-.78-1.197-1.327-1.387-.569-.199-.853.099-.663.693Zm-3.177 2.19c0 1.073 3.744 4.417 4.298 3.838.282-.294-.289-1.425-1.267-2.514-1.79-1.993-3.03-2.535-3.03-1.324Zm-2.076 3.856c.705.738 1.495 1.118 1.755.846.747-.78-.399-2.185-1.781-2.185-1.159 0-1.156.104.026 1.34ZM12.53 28.22c0 1.07 3.729 4.46 4.276 3.888.27-.282.043-1.076-.503-1.764-1.276-1.607-3.773-3.013-3.773-2.124Zm-2.275 3.734c.52.654 1.285 1.189 1.702 1.189.423 0 .34-.526-.186-1.19-.52-.653-1.285-1.189-1.702-1.189-.423 0-.34.526.186 1.19Zm.913 8.48C9.88 41.78 7.57 39.364 8.284 37.42c.474-1.289.64-1.263 2.16.326 1.295 1.354 1.45 1.928.724 2.688Z" fill="url(#a)"/><defs><linearGradient id="a" x1="0" y1="15.857" x2="47.142" y2="23.857" gradientUnits="userSpaceOnUse"><stop/><stop offset=".516" stop-color="#958F95"/><stop offset="1" stop-color="#352C2C"/></linearGradient></defs></svg>