<svg width="26" height="27" fill="none" xmlns="http://www.w3.org/2000/svg"><path fill-rule="evenodd" clip-rule="evenodd" d="M.963.965C.056 1.872 0 2.57 0 13.002s.056 11.13.963 12.037c.907.907 1.605.963 12.037.963s11.13-.056 12.037-.963c.907-.907.963-1.605.963-12.037s-.056-11.13-.963-12.037C24.13.058 23.432.002 13 .002S1.87.058.963.965Zm23.496.578c.82.82.82 22.099 0 22.918-.82.82-22.099.82-22.918 0-.82-.82-.82-22.099 0-22.918.82-.82 22.099-.82 22.918 0ZM2.89 3.373c0 .529.217.962.481.962.265 0 .482-.433.482-.963s-.217-.963-.482-.963c-.264 0-.481.434-.481.963Zm2.407 0c0 .529.217.962.482.962s.481-.433.481-.963-.216-.963-.481-.963-.482.434-.482.963Zm2.408 0c0 .529.216.962.481.962s.482-.433.482-.963-.217-.963-.482-.963-.481.434-.481.963Zm2.407 0c0 .529.217.962.482.962.264 0 .481-.433.481-.963s-.216-.963-.481-.963-.482.434-.482.963Zm2.408 0c0 .529.216.962.481.962s.482-.433.482-.963-.217-.963-.482-.963-.481.434-.481.963Zm2.407 0c0 .529.217.962.482.962.264 0 .481-.433.481-.963s-.217-.963-.481-.963c-.265 0-.482.434-.482.963Zm2.408 0c0 .529.216.962.48.962.266 0 .482-.433.482-.963s-.216-.963-.481-.963-.482.434-.482.963Zm2.407 0c0 .529.216.962.481.962s.482-.433.482-.963-.217-.963-.482-.963-.481.434-.481.963Zm2.407 0c0 .529.217.962.482.962s.481-.433.481-.963-.216-.963-.481-.963-.482.434-.482.963ZM13 11.98c0 5.474-.397 6.595-2.212 6.238-2.177-.429-2.006-3.354.215-3.685 1.43-.213 1.518-2.976.094-2.976-4.81 0-6.593 6.755-2.36 8.944 2.492 1.289 5.509.395 6.577-1.949.316-.694.575-2.423.575-3.842v-2.58l1.926.259c1.892.254 1.926.232 1.926-1.25 0-1.275-.18-1.507-1.17-1.507-1.295 0-2.682-1.138-2.682-2.201 0-.444-.514-.688-1.444-.688H13v5.237Zm2.6-3.078c.43.657 1.322 1.331 1.98 1.497.66.165 1.198.518 1.198.785 0 .487-1.43.326-3.01-.338-.76-.32-.842.007-.842 3.33 0 3.27-.133 3.818-1.182 4.866-1.563 1.564-3.776 1.564-5.34 0-1.563-1.563-1.563-3.776 0-5.34 1.197-1.196 2.67-1.583 2.67-.7a.483.483 0 0 1-.481.481c-.836 0-2.408 1.886-2.408 2.89 0 1.24 1.649 2.888 2.89 2.888.529 0 1.396-.433 1.925-.963.835-.834.963-1.604.963-5.777 0-2.649.192-4.815.426-4.815.235 0 .779.538 1.21 1.196Z" fill="url(#a)"/><defs><linearGradient id="a" x1=".008" y1="18.906" x2="25.991" y2="19.23" gradientUnits="userSpaceOnUse"><stop offset=".018"/><stop offset=".526" stop-color="#716571"/><stop offset=".995" stop-opacity=".81"/></linearGradient></defs></svg>